<?xml version="1.0" encoding="UTF-8"?>
<svg id="_レイヤー_2" data-name="レイヤー 2" xmlns="http://www.w3.org/2000/svg" viewBox="0 0 402.03 56.77">
  <defs>
    <style>
      .cls-1 {
        fill: #009866;
      }

      .cls-2 {
        fill: #f9be00;
      }
    </style>
  </defs>
  <g id="_レイヤー_1-2" data-name="レイヤー 1">
    <g>
      <path class="cls-1" d="M198.44,29.78c0,6.9-4.59,10.54-13.76,10.93v-4.41c6.07-.41,9.1-2.62,9.1-6.62,0-2.25-1.14-3.91-3.41-4.96-1.82,4.67-3.93,8.3-6.34,10.9-2.48,2.67-5.16,4-8.03,4-1.84,0-3.33-.6-4.48-1.79-1.31-1.36-1.96-3.29-1.96-5.79,0-2.23.67-4.3,2-6.21,1.47-2.11,3.57-3.68,6.31-4.69l-.04-2.69h-7.24v-4.31h7.24v-3.1h4.52v3.1h15.14v4.24h-15.24v1.72c.94-.11,1.95-.17,3.03-.17,4.46,0,7.84.99,10.14,2.97,2.02,1.72,3.03,4.02,3.03,6.9ZM179.13,34.06c-.62-2.11-1.01-5-1.17-8.65-2.74,1.56-4.1,3.77-4.1,6.62,0,.99.24,1.77.72,2.34.48.57,1.1.86,1.86.86.8,0,1.7-.39,2.69-1.17ZM186.34,23.75c-.6-.05-1.02-.07-1.28-.07-.92,0-1.85.08-2.79.24.07,3.15.22,5.52.45,7.1,1.33-1.95,2.54-4.38,3.62-7.27Z"/>
      <path class="cls-1" d="M218.51,37.09c-2.53,1.82-4.95,2.72-7.27,2.72-5.29,0-7.93-4.6-7.93-13.79,0-4.02.44-8.32,1.31-12.89h4.9c-.99,4.76-1.48,9.24-1.48,13.45,0,5.56,1.28,8.34,3.83,8.34,1.59,0,3.8-1.15,6.65-3.45v5.62ZM231.3,36.68h-4.9c0-4.71-.38-8.68-1.14-11.9-.87-3.77-2.45-7.44-4.72-11h5.41c1.79,2.94,3.1,6.08,3.93,9.41.94,3.77,1.41,8.26,1.41,13.48Z"/>
      <path class="cls-1" d="M262.98,19.68h-17.83c-1.17,3.22-1.84,4.98-2,5.27,2.62-1.54,5.59-2.31,8.9-2.31,3.08,0,5.52.71,7.33,2.12s2.71,3.33,2.71,5.74c0,2.94-1.33,5.26-4,6.95-2.67,1.69-6.31,2.53-10.93,2.53-3.4,0-6.56-.3-9.48-.9v-4.48c3.17.62,6.23.93,9.17.93s5.3-.4,7.14-1.21c2.09-.92,3.14-2.23,3.14-3.93,0-1.08-.52-1.95-1.57-2.62-1.05-.67-2.5-1-4.36-1s-3.69.39-5.55,1.17c-1.68.69-3.08,1.57-4.21,2.65h-4.96c.46-1.17,1.74-4.81,3.83-10.93h-6v-4.31h7.48c.69-2.09,1.12-3.41,1.28-3.97h5.03c-.12.37-.58,1.69-1.38,3.97h16.27v4.31Z"/>
      <path class="cls-1" d="M276.98,21.06c0,5.75-.79,10.33-2.38,13.76,1.56,1.31,3.75,1.97,6.55,1.97h3.24v-2.28h-7.79v-3.48h7.79v-1.31h-6.52v-3.17h6.52v-1.28h-6.07v-3.07h6.07v-1.48h-7.93v-3.45h7.93v-1.45h-6.07v-3.45h6.07v-1.97h4.38v1.97h6.79v4.69h2.21v4h-2.21v4.21h-6.79v1.28h7.1v3.17h-7.1v1.31h8.45v3.48h-8.45v2.28h9.34l-.79,3.96h-18.24c-2.57,0-4.78-.78-6.62-2.34-.8,1.1-1.79,2.19-2.96,3.28l-3.48-3.45c1.49-1.19,2.68-2.33,3.55-3.41-1.1-1.91-2.06-4.34-2.86-7.31l3.45-1.97c.48,2.09,1.05,3.87,1.69,5.34.67-1.75,1.04-3.8,1.14-6.17h-5.72v-3.17l4.69-6.1h-4.59v-4.03h9.65v3.79l-4.45,5.86h4.41ZM291.6,17.27v-1.55h-2.83v1.55h2.83ZM291.6,22.3v-1.59h-2.83v1.59h2.83Z"/>
      <path class="cls-1" d="M311.7,30.89c-.16.05-.41.13-.76.24v10.1h-4.38v-8.86c-1.61.41-3.33.77-5.17,1.07l-.79-4.41c2.05-.25,4.03-.6,5.96-1.03v-7.17h-1.66c-.18,1.82-.4,3.44-.66,4.86l-3.55-1.07c.69-3.49,1.08-7.47,1.17-11.93l3.52.38c-.05,1.24-.1,2.45-.17,3.62h1.45v-6.21h4.28v6.21h2.69v2.14c1.77-2.69,3.16-5.57,4.17-8.65l4.34.48c-.39,1.15-.87,2.36-1.45,3.62h10.96v14.62c0,3.82-.15,6.5-.45,8.07-.34,1.68-.98,2.78-1.9,3.31-.78.44-2.16.66-4.14.66h-2.59l-1.38-4.03h2.55c1.24,0,2.07-.18,2.48-.55.53-.44.87-1.41,1.03-2.93.14-1.29.21-3.76.21-7.41v-.31c-2.09,4.96-5.3,9.78-9.62,14.45l-3.31-2.9c5.52-5.31,9.43-11.6,11.76-18.86h-1.55c-2.37,5.68-5.82,10.93-10.34,15.76l-2.83-3.17.1-.07ZM310.94,26.82c.87-.28,1.76-.6,2.65-.97v3.07c3.03-3.26,5.38-6.78,7.03-10.55h-2.03c-1.38,2.41-2.85,4.59-4.41,6.52l-2.69-3.17c.07-.07.3-.37.69-.9h-1.24v6Z"/>
      <path class="cls-1" d="M344.42,10.72c-.28.51-.58,1.05-.9,1.62h7.07v2.93c1.31-1.59,2.45-3.31,3.41-5.17l4.58.59c-.37.71-.67,1.26-.9,1.65h8.72v3.72h-4.66c.14.28.45.94.93,2l-4.52,1.07c-.39-.99-.84-2.01-1.34-3.07h-1.52c-.57.83-1.15,1.59-1.72,2.28v1.17h12.45v6.86h-4.58v4.62h-17.38v1.1h19.62v9.34h-4.52v-1.38h-15.1v1.38h-4.52v-15.07h-3.24v-6.86h12.48v-1.17h3.52l-3.28-1.28c.32-.35.62-.68.9-1h-2.97c.34.69.67,1.37.97,2.03l-4.34,1.03c-.39-1.06-.83-2.08-1.31-3.07h-1.17c-.69.97-1.42,1.9-2.21,2.79l-4.14-1.65c2.14-2.3,3.85-4.67,5.14-7.1l4.52.62ZM340.97,23.96h20.41v-1.03h-20.41v1.03ZM356.93,28.13v-1.17h-12.86v1.17h12.86ZM359.17,36.54v-1.41h-15.1v1.41h15.1Z"/>
      <path class="cls-1" d="M380.24,36.09c-3.15.97-6.75,1.7-10.79,2.21l-.59-4.24c1.42-.14,2.73-.3,3.93-.48v-7.48h-2.96v-4.1h2.96v-5.72h-3.21v-4.14h10.62v4.14h-3.03v5.72h2.62v4.1h-2.62v6.69c.92-.21,1.94-.47,3.07-.79v4.1ZM400.72,40.64h-20.96v-4.03h8.38v-2.72h-6.93v-3.83h6.93v-2.17h-6.62V11.54h17.79v16.34h-6.79v2.17h7.14v3.83h-7.14v2.72h8.21v4.03ZM388.27,18.16v-2.65h-2.72v2.65h2.72ZM388.27,24.27v-2.62h-2.72v2.62h2.72ZM395.27,18.16v-2.65h-2.9v2.65h2.9ZM395.27,24.27v-2.62h-2.9v2.62h2.9Z"/>
    </g>
    <g>
      <path class="cls-1" d="M63.85,28.01c-.63,1.23-1.33,2.43-2.09,3.61l-1.24-3.17c1.33-1.96,2.44-3.93,3.33-5.91v-.74h-2.96v-2.71h2.94v-3.56h2.83v3.56h2.53v2.02c.6-1.56,1.06-3.29,1.38-5.19l2.48.37c-.12.77-.23,1.36-.32,1.79h1.4v-2.62h2.64v2.62h4.39v2.78h-4.39v2.46h5.06v2.74h-4.21c1.24,2.36,2.78,4.5,4.62,6.44l-1.91,2.16c-1.39-1.61-2.6-3.36-3.61-5.24v6.73h-2.64v-6.78c-1.06,2.02-2.29,3.85-3.7,5.47l-1.91-2.18c1.79-1.85,3.35-4.05,4.67-6.6h-4.14v-2.74h5.08v-2.46h-2.07c-.21.69-.45,1.36-.71,2.02l-2.46-.92.07-.16h-2.25v.94c.74,1.29,1.68,2.66,2.83,4.11l-1.17,2.85c-.58-.77-1.13-1.58-1.66-2.44v8.87h-2.8v-8.14Z"/>
      <path class="cls-1" d="M98.01,33.78c-3.48.86-7.02,1.46-10.62,1.79l-.8-2.94c1.42-.12,2.9-.29,4.41-.51v-4.83h-3.45v-2.71h9.88v2.71h-3.33v4.34c1.2-.21,2.5-.5,3.91-.85v2.99ZM106.72,22.43h-5.75v.12c.18,2.76.49,5.06.92,6.9.48,2.08,1.01,3.13,1.61,3.13.26,0,.61-.38,1.06-1.15.38-.64.72-1.34,1.01-2.09l1.77,2.97c-.61,1.09-1.11,1.85-1.49,2.3-.78.9-1.62,1.36-2.51,1.36-1.69,0-2.96-1.25-3.84-3.75-.71-2.02-1.21-5.15-1.52-9.38l-.02-.39h-11.36v-2.94h11.17c-.08-1.32-.14-2.57-.18-3.75h3.03c0,.64.05,1.89.16,3.75h2.9c-.74-.86-1.54-1.64-2.41-2.34l1.86-1.63c.97.72,1.9,1.61,2.8,2.67l-1.49,1.31h2.28v2.94Z"/>
      <path class="cls-1" d="M127.45,24.17h-11.19v-1.61c-1.13.75-2.31,1.42-3.52,2.02l-2.05-2.32c3.82-1.7,6.96-3.95,9.42-6.73h3.36c2.56,2.73,5.79,4.92,9.7,6.57l-2.02,2.41c-1.2-.54-2.43-1.21-3.7-2.02v1.68ZM127.29,34.47c-4.54.75-9.22,1.26-14.04,1.54l-.99-2.94c1.15-.03,2.24-.07,3.29-.11.96-1.55,1.8-3.03,2.5-4.44h-6v-2.78h19.74v2.78h-10.37c-.58,1.15-1.36,2.56-2.34,4.23,1.98-.14,4.08-.33,6.3-.57-.77-.87-1.48-1.65-2.14-2.32l2.8-1.03c1.76,1.69,3.58,3.7,5.45,6.04l-2.99,1.24c-.46-.64-.87-1.19-1.22-1.63ZM117.8,21.48h8.14c-1.59-1.13-2.97-2.29-4.14-3.47-1.21,1.24-2.54,2.4-4,3.47Z"/>
      <path class="cls-1" d="M143.29,36.06h-2.92v-7.15c-.84.87-1.76,1.72-2.76,2.55l-1.36-2.71c2.88-2.36,4.96-4.78,6.25-7.26h-5.42v-2.69h3.08v-3.22h2.96v3.22h2.67v2.34c-.64,1.35-1.38,2.63-2.21,3.84.97,1.04,2.14,2.12,3.52,3.24l-1.61,2.39c-.71-.63-1.44-1.34-2.21-2.14v7.58ZM157.77,35.48h-12.07v-3.03h4.57v-7.77h-4.07v-2.99h4.07v-5.77h3.08v5.77h4v2.99h-4v7.77h4.41v3.03Z"/>
    </g>
    <path class="cls-1" d="M21.53,50.02l-1.26-1.51c-2.3-2.52-4.98-4.64-7.96-6.29-2.99-1.66-6.22-2.82-9.6-3.44l-2.72-.5.82-2.64c1.52-4.85,1.82-10.07.88-15.1l4.8-.9c.92,4.93.81,10.03-.32,14.89,2.96.77,5.81,1.91,8.5,3.4,3.46,1.92,6.57,4.38,9.24,7.31l.07.08,1.29,1.55-3.75,3.13Z"/>
    <path class="cls-1" d="M26.93,45.49l-3.24-3.66c3.97-3.51,8.7-6.12,13.8-7.63-1.87-6.8-1.75-14.08.41-20.78l.56-1.84,4.67,1.43-.57,1.87c-2.11,6.55-1.98,13.72.34,20.22l.94,2.62-2.72.59c-5.27,1.15-10.18,3.63-14.19,7.18"/>
    <path class="cls-1" d="M.96,17.68L.09,12.87l2.17-.39c6.65-1.45,12.8-5.14,17.23-10.36l1.8-2.12,1.87,2.05c2.3,2.52,4.98,4.64,7.96,6.29,1.49.82,3.05,1.53,4.64,2.1l-1.65,4.6c-1.84-.66-3.65-1.48-5.36-2.43-2.67-1.48-5.12-3.28-7.33-5.37-4.92,5-11.3,8.52-18.21,10.03l-2.26.41Z"/>
    <path class="cls-2" d="M26.07,20.65c0,2.29-1.86,4.15-4.15,4.15s-4.15-1.86-4.15-4.15,1.86-4.15,4.15-4.15,4.15,1.86,4.15,4.15"/>
    <path class="cls-2" d="M21.04,29.37c0,2.29-1.86,4.15-4.15,4.15s-4.15-1.86-4.15-4.15,1.86-4.15,4.15-4.15,4.15,1.86,4.15,4.15"/>
    <path class="cls-2" d="M31.11,29.37c0,2.29-1.86,4.15-4.15,4.15s-4.15-1.86-4.15-4.15,1.86-4.15,4.15-4.15,4.15,1.86,4.15,4.15"/>
    <g>
      <polygon points="336.52 56.63 336.52 48.55 334.57 48.55 334.57 51.74 330.01 51.74 330.01 48.55 328.06 48.55 328.06 56.63 330.01 56.63 330.01 53.44 334.57 53.44 334.57 56.63 336.52 56.63"/>
      <rect x="342.56" y="48.55" width="1.95" height="8.07"/>
      <rect x="350.56" y="48.55" width="1.95" height="8.07"/>
      <path d="M364.6,56.63h2.22l-2.07-2.61.16-.06c1.21-.45,1.87-1.34,1.87-2.51,0-1.89-1.11-2.89-3.21-2.89h-4.77v8.07h1.95v-2.32h2.03l1.83,2.32ZM360.75,50.26h2.7c.95,0,1.35.36,1.35,1.19,0,.75-.48,1.17-1.35,1.17h-2.7v-2.36Z"/>
      <path d="M378.01,55.33l.61,1.3h2.03l-3.97-8.07h-2.31l-3.96,8.07h1.97l.61-1.3h5.02ZM375.5,50.04l1.7,3.59h-3.39l1.7-3.59Z"/>
      <path d="M391.84,50.71l1.22-.99c-.9-.86-2.2-1.31-3.79-1.31-2.95,0-5.1,1.76-5.1,4.18s2.13,4.18,5.06,4.18c1.35,0,2.73-.37,3.71-1v-4.06h-3.82v1.7h2.06v1.36l-.07.03c-.53.25-1.09.36-1.76.36-1.91,0-3.2-.98-3.2-2.58s1.3-2.65,3.23-2.65c1.02,0,1.8.2,2.46.77"/>
      <rect x="398.77" y="48.55" width="1.95" height="8.07"/>
    </g>
  </g>
</svg>