<?xml version="1.0" encoding="UTF-8"?>
<svg id="_レイヤー_2" data-name="レイヤー 2" xmlns="http://www.w3.org/2000/svg" viewBox="0 0 43.71 49.88">
  <defs>
    <style>
      .cls-1 {
        fill: #009866;
      }

      .cls-2 {
        fill: #f9be00;
      }
    </style>
  </defs>
  <g id="_レイヤー_1-2" data-name="レイヤー 1">
    <path class="cls-1" d="M21.47,49.88l-1.25-1.5c-2.3-2.51-4.97-4.62-7.94-6.27-2.99-1.66-6.21-2.81-9.57-3.43l-2.71-.5.82-2.63c1.51-4.83,1.82-10.04.88-15.05l4.79-.89c.92,4.92.8,10-.32,14.85,2.96.77,5.8,1.9,8.48,3.39,3.45,1.91,6.55,4.37,9.21,7.29l.07.08,1.29,1.54-3.74,3.12Z"/>
    <path class="cls-1" d="M26.86,45.36l-3.23-3.65c3.96-3.5,8.68-6.11,13.76-7.61-1.87-6.78-1.74-14.04.4-20.72l.56-1.84,4.66,1.43-.57,1.87c-2.1,6.53-1.98,13.68.34,20.16l.93,2.61-2.71.59c-5.26,1.14-10.15,3.62-14.15,7.16"/>
    <path class="cls-1" d="M.95,17.63L.09,12.83l2.17-.39c6.63-1.45,12.76-5.12,17.18-10.33l1.79-2.11,1.87,2.05c2.3,2.51,4.97,4.62,7.94,6.27,1.48.82,3.04,1.53,4.63,2.1l-1.65,4.59c-1.84-.66-3.64-1.48-5.35-2.43-2.66-1.48-5.11-3.27-7.31-5.35-4.91,4.98-11.26,8.5-18.15,10l-2.25.41Z"/>
    <path class="cls-2" d="M26,20.59c0,2.29-1.85,4.14-4.14,4.14s-4.14-1.85-4.14-4.14,1.85-4.14,4.14-4.14,4.14,1.85,4.14,4.14"/>
    <path class="cls-2" d="M20.98,29.29c0,2.29-1.85,4.14-4.14,4.14s-4.14-1.85-4.14-4.14,1.85-4.14,4.14-4.14,4.14,1.85,4.14,4.14"/>
    <path class="cls-2" d="M31.02,29.29c0,2.29-1.85,4.14-4.14,4.14s-4.14-1.85-4.14-4.14,1.85-4.14,4.14-4.14,4.14,1.85,4.14,4.14"/>
  </g>
</svg>