<?xml version="1.0" encoding="UTF-8"?>
<svg id="_レイヤー_2" data-name="レイヤー 2" xmlns="http://www.w3.org/2000/svg" viewBox="0 0 341.19 34.38">
  <defs>
    <style>
      .cls-1 {
        fill: #009866;
      }
    </style>
  </defs>
  <g id="_レイヤー_1-2" data-name="レイヤー 1">
    <g>
      <path class="cls-1" d="M138.19,21.18c0,6.88-4.57,10.51-13.72,10.9v-4.4c6.05-.41,9.08-2.61,9.08-6.6,0-2.25-1.13-3.9-3.4-4.95-1.81,4.65-3.92,8.27-6.33,10.86-2.48,2.66-5.15,3.99-8.01,3.99-1.83,0-3.32-.6-4.47-1.79-1.31-1.35-1.96-3.28-1.96-5.78,0-2.22.66-4.29,1.99-6.19,1.47-2.11,3.56-3.67,6.29-4.68l-.04-2.68h-7.22v-4.3h7.22v-3.09h4.5v3.09h15.09v4.23h-15.19v1.72c.94-.11,1.95-.17,3.02-.17,4.45,0,7.82.99,10.11,2.96,2.02,1.72,3.03,4.01,3.03,6.88ZM118.93,25.44c-.62-2.11-1.01-4.98-1.17-8.63-2.73,1.56-4.09,3.76-4.09,6.6,0,.99.24,1.77.72,2.34.48.57,1.1.86,1.86.86.8,0,1.7-.39,2.68-1.17ZM126.12,15.16c-.6-.05-1.02-.07-1.27-.07-.92,0-1.84.08-2.78.24.07,3.14.22,5.5.45,7.08,1.33-1.95,2.53-4.37,3.61-7.25Z"/>
      <path class="cls-1" d="M158.19,28.47c-2.52,1.81-4.94,2.72-7.25,2.72-5.27,0-7.91-4.58-7.91-13.75,0-4.01.43-8.3,1.31-12.86h4.88c-.99,4.74-1.48,9.21-1.48,13.41,0,5.55,1.27,8.32,3.82,8.32,1.58,0,3.79-1.15,6.63-3.44v5.6ZM170.95,28.05h-4.88c0-4.7-.38-8.65-1.13-11.86-.87-3.76-2.44-7.41-4.71-10.97h5.4c1.79,2.93,3.09,6.06,3.92,9.39.94,3.76,1.41,8.24,1.41,13.44Z"/>
      <path class="cls-1" d="M202.54,11.1h-17.77c-1.17,3.21-1.83,4.96-1.99,5.26,2.61-1.54,5.57-2.3,8.87-2.3,3.07,0,5.51.71,7.31,2.11,1.8,1.41,2.7,3.32,2.7,5.72,0,2.93-1.33,5.24-3.99,6.93-2.66,1.68-6.29,2.53-10.9,2.53-3.39,0-6.54-.3-9.45-.89v-4.47c3.16.62,6.21.93,9.14.93s5.28-.4,7.12-1.2c2.09-.92,3.13-2.22,3.13-3.92,0-1.08-.52-1.95-1.56-2.61-1.04-.66-2.49-1-4.35-1s-3.68.39-5.54,1.17c-1.67.69-3.07,1.57-4.19,2.65h-4.95c.46-1.17,1.73-4.8,3.82-10.9h-5.98v-4.3h7.46c.69-2.09,1.11-3.4,1.27-3.95h5.02c-.12.37-.57,1.68-1.38,3.95h16.23v4.3Z"/>
      <path class="cls-1" d="M216.5,12.48c0,5.73-.79,10.3-2.37,13.72,1.56,1.31,3.74,1.96,6.53,1.96h3.23v-2.27h-7.77v-3.47h7.77v-1.31h-6.5v-3.16h6.5v-1.27h-6.05v-3.06h6.05v-1.48h-7.91v-3.44h7.91v-1.44h-6.05v-3.44h6.05v-1.96h4.37v1.96h6.77v4.68h2.2v3.99h-2.2v4.19h-6.77v1.27h7.08v3.16h-7.08v1.31h8.42v3.47h-8.42v2.27h9.32l-.79,3.95h-18.19c-2.57,0-4.77-.78-6.6-2.34-.8,1.1-1.79,2.19-2.96,3.27l-3.47-3.44c1.49-1.19,2.67-2.33,3.54-3.4-1.1-1.9-2.05-4.33-2.85-7.29l3.44-1.96c.48,2.09,1.04,3.86,1.68,5.33.67-1.74,1.04-3.79,1.13-6.15h-5.71v-3.16l4.68-6.08h-4.57V2.85h9.63v3.78l-4.43,5.84h4.4ZM231.08,8.7v-1.55h-2.82v1.55h2.82ZM231.08,13.72v-1.58h-2.82v1.58h2.82Z"/>
      <path class="cls-1" d="M251.12,22.28c-.16.05-.41.13-.76.24v10.07h-4.37v-8.84c-1.6.41-3.32.77-5.16,1.07l-.79-4.4c2.04-.25,4.02-.6,5.95-1.03v-7.15h-1.65c-.18,1.81-.4,3.43-.65,4.85l-3.54-1.07c.69-3.48,1.08-7.45,1.17-11.9l3.51.38c-.05,1.24-.1,2.44-.17,3.61h1.44V1.93h4.26v6.19h2.68v2.13c1.76-2.68,3.15-5.56,4.16-8.63l4.33.48c-.39,1.15-.87,2.35-1.44,3.61h10.93v14.58c0,3.8-.15,6.49-.45,8.04-.34,1.67-.97,2.77-1.89,3.3-.78.44-2.15.65-4.12.65h-2.58l-1.38-4.02h2.54c1.24,0,2.06-.18,2.48-.55.53-.44.87-1.41,1.03-2.92.14-1.28.21-3.75.21-7.39v-.31c-2.09,4.95-5.28,9.75-9.59,14.4l-3.3-2.89c5.5-5.29,9.41-11.56,11.72-18.8h-1.55c-2.36,5.66-5.8,10.9-10.31,15.71l-2.82-3.16.1-.07ZM250.36,18.22c.87-.28,1.75-.6,2.65-.96v3.06c3.03-3.25,5.36-6.76,7.01-10.52h-2.03c-1.38,2.41-2.84,4.57-4.4,6.5l-2.68-3.16c.07-.07.3-.37.69-.89h-1.24v5.98Z"/>
      <path class="cls-1" d="M283.74,2.17c-.28.5-.57,1.04-.89,1.62h7.05v2.92c1.31-1.58,2.44-3.3,3.4-5.16l4.57.58c-.37.71-.67,1.26-.89,1.65h8.7v3.71h-4.64c.14.27.45.94.93,1.99l-4.5,1.07c-.39-.99-.84-2.01-1.34-3.06h-1.51c-.57.83-1.15,1.58-1.72,2.27v1.17h12.41v6.84h-4.57v4.61h-17.33v1.1h19.56v9.32h-4.5v-1.38h-15.06v1.38h-4.5v-15.02h-3.23v-6.84h12.45v-1.17h3.51l-3.27-1.27c.32-.34.62-.68.89-1h-2.96c.34.69.66,1.36.96,2.03l-4.33,1.03c-.39-1.05-.83-2.07-1.31-3.06h-1.17c-.69.96-1.42,1.89-2.2,2.78l-4.12-1.65c2.13-2.29,3.84-4.65,5.12-7.08l4.5.62ZM280.3,15.37h20.35v-1.03h-20.35v1.03ZM296.22,19.53v-1.17h-12.82v1.17h12.82ZM298.46,27.92v-1.41h-15.06v1.41h15.06Z"/>
      <path class="cls-1" d="M319.46,27.47c-3.14.96-6.73,1.7-10.76,2.2l-.58-4.23c1.42-.14,2.73-.3,3.92-.48v-7.46h-2.96v-4.09h2.96v-5.71h-3.2V3.58h10.59v4.13h-3.03v5.71h2.61v4.09h-2.61v6.67c.92-.21,1.94-.47,3.06-.79v4.09ZM339.88,32.01h-20.9v-4.02h8.35v-2.72h-6.91v-3.82h6.91v-2.17h-6.6V2.99h17.74v16.3h-6.77v2.17h7.12v3.82h-7.12v2.72h8.18v4.02ZM327.47,9.59v-2.65h-2.72v2.65h2.72ZM327.47,15.68v-2.61h-2.72v2.61h2.72ZM334.45,9.59v-2.65h-2.89v2.65h2.89ZM334.45,15.68v-2.61h-2.89v2.61h2.89Z"/>
    </g>
    <g>
      <path class="cls-1" d="M3.99,19.41c-.63,1.22-1.32,2.42-2.09,3.6l-1.24-3.16c1.33-1.96,2.44-3.92,3.32-5.89v-.73H1.03v-2.7h2.93v-3.55h2.82v3.55h2.52v2.02c.6-1.56,1.05-3.28,1.38-5.18l2.47.37c-.12.76-.23,1.36-.32,1.79h1.4v-2.61h2.64v2.61h4.38v2.77h-4.38v2.45h5.04v2.73h-4.19c1.24,2.35,2.77,4.49,4.61,6.42l-1.9,2.15c-1.39-1.6-2.59-3.35-3.6-5.23v6.72h-2.64v-6.76c-1.05,2.02-2.28,3.84-3.69,5.45l-1.9-2.18c1.79-1.85,3.34-4.04,4.65-6.58h-4.12v-2.73h5.06v-2.45h-2.06c-.21.69-.45,1.36-.71,2.02l-2.45-.92.07-.16h-2.25v.94c.73,1.28,1.67,2.65,2.82,4.1l-1.17,2.84c-.58-.76-1.13-1.57-1.65-2.43v8.85h-2.8v-8.11Z"/>
      <path class="cls-1" d="M38.05,25.16c-3.47.86-7,1.45-10.59,1.79l-.8-2.93c1.42-.12,2.89-.29,4.4-.5v-4.81h-3.44v-2.7h9.86v2.7h-3.32v4.33c1.19-.21,2.49-.5,3.9-.85v2.98ZM46.73,13.84h-5.73v.11c.18,2.75.49,5.04.92,6.88.47,2.08,1.01,3.12,1.6,3.12.26,0,.61-.38,1.05-1.15.38-.64.72-1.34,1.01-2.09l1.76,2.96c-.61,1.08-1.11,1.85-1.49,2.29-.78.9-1.61,1.35-2.5,1.35-1.68,0-2.96-1.25-3.83-3.74-.7-2.02-1.21-5.13-1.51-9.35l-.02-.39h-11.32v-2.93h11.14c-.08-1.31-.14-2.56-.18-3.74h3.03c0,.64.05,1.89.16,3.74h2.89c-.73-.86-1.54-1.63-2.41-2.34l1.86-1.63c.96.72,1.89,1.6,2.8,2.66l-1.49,1.31h2.27v2.93Z"/>
      <path class="cls-1" d="M67.4,15.58h-11.16v-1.6c-1.13.75-2.3,1.42-3.51,2.02l-2.04-2.31c3.8-1.7,6.94-3.93,9.4-6.72h3.35c2.55,2.72,5.78,4.9,9.67,6.56l-2.02,2.41c-1.19-.53-2.42-1.21-3.69-2.02v1.67ZM67.24,25.85c-4.52.75-9.19,1.26-14,1.54l-.99-2.93c1.15-.03,2.24-.07,3.28-.11.96-1.54,1.79-3.02,2.5-4.42h-5.98v-2.77h19.69v2.77h-10.34c-.58,1.15-1.36,2.55-2.34,4.22,1.97-.14,4.06-.33,6.28-.57-.76-.87-1.47-1.64-2.13-2.31l2.8-1.03c1.76,1.68,3.57,3.69,5.43,6.03l-2.98,1.24c-.46-.64-.86-1.18-1.21-1.63ZM57.78,12.9h8.11c-1.59-1.13-2.96-2.28-4.13-3.46-1.21,1.24-2.54,2.39-3.99,3.46Z"/>
      <path class="cls-1" d="M83.2,27.43h-2.91v-7.13c-.84.87-1.76,1.72-2.75,2.54l-1.35-2.7c2.87-2.35,4.95-4.77,6.23-7.24h-5.41v-2.68h3.07v-3.21h2.96v3.21h2.66v2.34c-.64,1.34-1.38,2.62-2.2,3.83.96,1.04,2.13,2.12,3.51,3.23l-1.6,2.38c-.7-.63-1.44-1.34-2.2-2.13v7.56ZM97.63,26.86h-12.03v-3.02h4.56v-7.75h-4.06v-2.98h4.06v-5.75h3.07v5.75h3.99v2.98h-3.99v7.75h4.4v3.02Z"/>
    </g>
  </g>
</svg>