<?xml version="1.0" encoding="UTF-8"?>
<svg id="_レイヤー_1" data-name="レイヤー_1" xmlns="http://www.w3.org/2000/svg" version="1.1" viewBox="0 0 1920 1600">
  <!-- Generator: Adobe Illustrator 29.8.5, SVG Export Plug-In . SVG Version: 2.1.1 Build 2)  -->
  <defs>
    <style>
      .st0 {
        fill: #e4e4d2;
      }

      .st1 {
        fill: #f4f4ed;
      }
    </style>
  </defs>
  <path class="st0" d="M1860.4,1600.6H60.2c-33.1,0-59.9-33.7-59.9-75.4v-881.9c-3.2-40.5,11.1-67.6,55.3-80.4L1843.1.7c42.8-2.2,77.2,31.5,77.2,73.2v1451.4c0,41.6-26.8,75.4-59.9,75.4Z"/>
  <path class="st1" d="M1896,1515.1V71.2c0-34.9-26.9-48.3-54-48.3L75.9,576.9c-31,8.7-52.7,21.1-51.9,75.4v862.7c0,34.9,22,63.3,49.1,63.3h1773.8c27.1,0,49.1-28.3,49.1-63.3Z"/>
</svg>