<?xml version="1.0" encoding="UTF-8"?>
<svg id="_レイヤー_2" data-name="レイヤー 2" xmlns="http://www.w3.org/2000/svg" viewBox="0 0 599.9 1595.9">
  <defs>
    <style>
      .cls-1 {
        fill: #e4e4d2;
      }

      .cls-2 {
        fill: #f4f4ed;
      }
    </style>
  </defs>
  <g id="_レイヤー_1-2" data-name=" レイヤー 1">
    <path class="cls-1" d="M581.19,1595.8H18.75c-10.34,0-18.71-33.7-18.71-75.4V219.24c-1.18-42.39,24.73-45.34,38.91-54.33L574.31.59c18.55-5.4,25.6,26.8,25.6,68.5v1451.4c0,41.6-8.37,75.4-18.71,75.4v-.1Z"/>
    <path class="cls-2" d="M588,1510.3V66.4c0-34.9-8.23-48.3-16.51-48.3L43.59,184.13c-9.48,8.7-28.29,1.36-28.04,55.66v1270.41c0,34.9,6.73,63.3,15.01,63.3h542.43c8.29,0,15.01-28.3,15.01-63.3v.1Z"/>
  </g>
</svg>